<?xml version="1.0" encoding="UTF-8" standalone="no"?>
<!DOCTYPE svg PUBLIC "-//W3C//DTD SVG 1.1//EN" "http://www.w3.org/Graphics/SVG/1.1/DTD/svg11.dtd">
<svg width="100%" height="100%" viewBox="0 0 1024 1024" version="1.1" xmlns="http://www.w3.org/2000/svg" xmlns:xlink="http://www.w3.org/1999/xlink" xml:space="preserve" xmlns:serif="http://www.serif.com/" style="fill-rule:evenodd;clip-rule:evenodd;stroke-linejoin:round;stroke-miterlimit:2;">
    <g transform="matrix(0,-1.293941,1.293941,0,12.883309,1004.970858)">
        <path d="M361.777,164.832L361.777,232.088C361.777,306.327 301.504,366.6 227.265,366.6L160.009,366.6C85.769,366.6 25.497,306.327 25.497,232.088L25.497,164.832C25.497,90.593 85.769,30.32 160.009,30.32L227.265,30.32C301.504,30.32 361.777,90.593 361.777,164.832Z" style="fill:rgb(199,255,227);"/>
        <path d="M361.777,164.832L361.777,232.088C361.777,306.327 301.504,366.6 227.265,366.6L160.009,366.6C85.769,366.6 25.497,306.327 25.497,232.088L25.497,164.832C25.497,90.593 85.769,30.32 160.009,30.32L227.265,30.32C301.504,30.32 361.777,90.593 361.777,164.832ZM315.208,164.832C315.208,116.295 275.802,76.888 227.265,76.888L160.009,76.888C111.471,76.888 72.065,116.295 72.065,164.832L72.065,232.088C72.065,280.626 111.471,320.032 160.009,320.032L227.265,320.032C275.802,320.032 315.208,280.626 315.208,232.088L315.208,164.832Z" style="fill:rgb(103,213,181);"/>
    </g>
    <g transform="matrix(0,-1.293941,1.293941,0,12.883309,520.137867)">
        <path d="M361.777,164.832L361.777,232.088C361.777,306.327 301.504,366.6 227.265,366.6L160.009,366.6C85.769,366.6 25.497,306.327 25.497,232.088L25.497,164.832C25.497,90.593 85.769,30.32 160.009,30.32L227.265,30.32C301.504,30.32 361.777,90.593 361.777,164.832Z" style="fill:rgb(199,255,227);"/>
        <path d="M361.777,164.832L361.777,232.088C361.777,306.327 301.504,366.6 227.265,366.6L160.009,366.6C85.769,366.6 25.497,306.327 25.497,232.088L25.497,164.832C25.497,90.593 85.769,30.32 160.009,30.32L227.265,30.32C301.504,30.32 361.777,90.593 361.777,164.832ZM315.208,164.832C315.208,116.295 275.802,76.888 227.265,76.888L160.009,76.888C111.471,76.888 72.065,116.295 72.065,164.832L72.065,232.088C72.065,280.626 111.471,320.032 160.009,320.032L227.265,320.032C275.802,320.032 315.208,280.626 315.208,232.088L315.208,164.832Z" style="fill:rgb(103,213,181);"/>
    </g>
    <g transform="matrix(0,-1.293941,1.293941,0,497.524831,520.137867)">
        <path d="M361.777,164.832L361.777,232.088C361.777,306.327 301.504,366.6 227.265,366.6L160.009,366.6C85.769,366.6 25.497,306.327 25.497,232.088L25.497,164.832C25.497,90.593 85.769,30.32 160.009,30.32L227.265,30.32C301.504,30.32 361.777,90.593 361.777,164.832Z" style="fill:rgb(199,255,227);"/>
        <path d="M361.777,164.832L361.777,232.088C361.777,306.327 301.504,366.6 227.265,366.6L160.009,366.6C85.769,366.6 25.497,306.327 25.497,232.088L25.497,164.832C25.497,90.593 85.769,30.32 160.009,30.32L227.265,30.32C301.504,30.32 361.777,90.593 361.777,164.832ZM315.208,164.832C315.208,116.295 275.802,76.888 227.265,76.888L160.009,76.888C111.471,76.888 72.065,116.295 72.065,164.832L72.065,232.088C72.065,280.626 111.471,320.032 160.009,320.032L227.265,320.032C275.802,320.032 315.208,280.626 315.208,232.088L315.208,164.832Z" style="fill:rgb(103,213,181);"/>
    </g>
    <g transform="matrix(0,-1.293941,1.293941,0,497.524831,1004.970858)">
        <path d="M361.777,164.832L361.777,232.088C361.777,306.327 301.504,366.6 227.265,366.6L160.009,366.6C85.769,366.6 25.497,306.327 25.497,232.088L25.497,164.832C25.497,90.593 85.769,30.32 160.009,30.32L227.265,30.32C301.504,30.32 361.777,90.593 361.777,164.832Z" style="fill:rgb(199,216,255);"/>
        <path d="M361.777,164.832L361.777,232.088C361.777,306.327 301.504,366.6 227.265,366.6L160.009,366.6C85.769,366.6 25.497,306.327 25.497,232.088L25.497,164.832C25.497,90.593 85.769,30.32 160.009,30.32L227.265,30.32C301.504,30.32 361.777,90.593 361.777,164.832ZM315.208,164.832C315.208,116.295 275.802,76.888 227.265,76.888L160.009,76.888C111.471,76.888 72.065,116.295 72.065,164.832L72.065,232.088C72.065,280.626 111.471,320.032 160.009,320.032L227.265,320.032C275.802,320.032 315.208,280.626 315.208,232.088L315.208,164.832Z" style="fill:rgb(103,154,213);"/>
    </g>
</svg>
